<?xml version="1.0" encoding="UTF-8"?>
<svg version="1.1" viewBox="0 0 2048 2048" width="1280" height="1280" xmlns="http://www.w3.org/2000/svg">
<path transform="translate(398,1093)" d="m0 0h22l39 3 33 5 29 7 26 8 29 11 33 16 21 12 11 7 12 8 20 14 15 10 23 16 16 11 18 12 19 10 17 6 14 3 25 3 16-1 20-4 17-6 16-8 13-8 41-28 23-16 22-15 20-13 19-11 21-11 28-12 33-11 28-7 32-6 27-3 21-1h23l30 2 31 4 29 6 28 8 28 10 29 13 23 12 26 16 14 10 24 16 11 8 19 13 16 11 15 10 14 8 15 6 17 5 13 2 20 1 19-2 18-4 20-8 15-8 16-11 19-13 23-16 12-8 45-31 17-10 20-8 17-4 7-1h34l20 4 17 6 16 8 11 7 13 10 15 15 11 15 9 17 7 19 5 22v35l-7 26-6 16-10 18-10 13-9 10-10 9-18 13-12 8-20 14-28 19-32 22-21 14-15 9-22 12-26 12-21 8-21 7-36 9-30 5-30 3-32 1-34-2-30-4-30-6-31-9-28-10-20-9-17-8-21-12-19-12-16-11-20-14-44-30-18-12-16-9-18-7-17-4-15-2h-19l-20 3-15 4-15 6-13 7-15 10-20 14-22 15-16 11-25 17-17 11-17 10-21 11-30 13-36 12-32 8-30 5-31 3-21 1h-14l-38-2-32-5-23-5-28-8-25-9-27-12-20-10-22-13-21-14-19-13-23-16-25-17-24-16-19-10-18-6-21-4h-30l-24 5-19 7-16 9-12 8-23 16-25 17-48 33-19 12-15 7-15 5-12 3-21 2-23-1-16-3-18-6-17-8-18-12-13-12-8-8-11-15-9-16-8-21-4-15v-49l8-25 8-18 10-16 13-15 8-8 17-13 28-19 35-24 13-9 16-11 30-20 15-9 20-11 29-13 37-13 27-7 36-7 32-3z" fill="#60D8FC"/>
<path transform="translate(405,510)" d="m0 0 29 1 27 2 36 6 32 8 30 10 26 11 23 11 21 12 33 22 19 13 20 14 12 8 13 9 21 14 15 8 19 7 27 5h25l18-3 16-5 12-5 12-6 24-16 23-16 44-30 24-16 17-10 16-9 29-13 34-12 33-9 33-6 26-3 15-1h37l35 3 27 4 27 6 27 8 27 10 31 14 20 11 21 13 19 13 51 35 23 16 18 11 15 7 15 5 14 3 8 1h29l25-5 16-6 16-8 24-16 41-28 23-16 22-15 15-10 17-9 14-5 16-4 17-2h16l22 3 17 5 18 8 14 8 14 11 4 3v2l4 2 9 10 11 16 8 15 7 19 5 22v34l-6 24-6 16-8 16-12 17-13 14-14 11-20 14-41 28-23 16-45 30-23 13-22 11-29 12-27 9-36 9-31 5-30 3h-49l-38-4-36-7-25-7-32-11-25-11-22-11-25-15-25-17-35-24-23-16-12-8-17-11-19-9-15-5-16-3-8-1h-23l-19 3-18 5-21 10-24 16-64 44-27 18-19 11-23 12-27 12-28 10-30 8-24 5-28 4-23 2-25 1-31-1-29-3-36-7-32-9-28-10-27-12-23-12-23-14-19-13-35-24-32-22-18-12-14-8-21-8-11-3-25-3-19 1-21 4-18 6-19 10-25 17-32 22-23 16-22 15-18 12-12 7-20 8-14 4-21 3h-18l-21-3-24-8-16-8-11-7-11-9-12-11-11-13-9-15-7-14-9-29v-49l8-26 9-19 10-15 9-11 13-13 19-14 12-8 32-22 54-37 18-12 22-13 23-12 26-11 28-10 30-8 26-5 18-3 26-2z" fill="#97E3FD"/>
<path transform="translate(405,510)" d="m0 0 29 1 27 2 36 6 32 8 30 10 26 11 23 11 21 12 33 22 19 13 20 14 12 8 13 9 21 14 15 8 19 7 27 5 6 1v1l-22 2-25 8-12 5-11 7-9 7-5 5h-2v2l-5 4-5 7h-2l-2 4-7 9-4 7-7 12-6 15-4 16-3 16-1 13 1 25 4 19 3 8 4 10 9 17 9 12 6 7v2l4 2v2l4 2 14 11 14 7 16 6 5 2 10 3 2 5h-12l-18-2-36-7-32-9-28-10-27-12-23-12-23-14-19-13-35-24-32-22-18-12-14-8-21-8-11-3-25-3-19 1-21 4-18 6-19 10-25 17-32 22-23 16-22 15-18 12-12 7-20 8-14 4-21 3h-18l-21-3-24-8-16-8-11-7-11-9-12-11-11-13-9-15-7-14-9-29v-49l8-26 9-19 10-15 9-11 13-13 19-14 12-8 32-22 54-37 18-12 22-13 23-12 26-11 28-10 30-8 26-5 18-3 26-2z" fill="#60D8FC"/>
<path transform="translate(398,1093)" d="m0 0h22l39 3 33 5 29 7 26 8 29 11 33 16 21 12 11 7 12 8 20 14 15 10 23 16 16 11 18 12 19 10 17 6 14 3 9 2-1 2-16 3-19 6-9 4-15 8-13 10-5 5h-2l-2 4-6 7-5 5-9 13-5 9-4 8-4 11-4 14-3 16-1 24 1 21 6 22 5 12 7 13 10 14 9 10 9 9 18 12 18 8 17 6 10 3-1 2h-19l-32-5-23-5-28-8-25-9-27-12-20-10-22-13-21-14-19-13-23-16-25-17-24-16-19-10-18-6-21-4h-30l-24 5-19 7-16 9-12 8-23 16-25 17-48 33-19 12-15 7-15 5-12 3-21 2-23-1-16-3-18-6-17-8-18-12-13-12-8-8-11-15-9-16-8-21-4-15v-49l8-25 8-18 10-16 13-15 8-8 17-13 28-19 35-24 13-9 16-11 30-20 15-9 20-11 29-13 37-13 27-7 36-7 32-3z" fill="#34C0F8"/>
</svg>
